# File created by Blade
# Date/Time:  Wed Apr 08 17:39:35 2015
# Frame Rate: 120.000 fps
#------------------------------------------------------
:FULLY-SPECIFIED
:DEGREES
3791
root 8.642715 37.768553 0.491683 199.915149 -26.190650 -514.172988
Spine -15.051440 -1.118600 -1.572873
Head 34.147191 -21.907696 21.680575
LeftShoulder -6.906420 18.522539 18.952896
LeftArm 21.905036 18.351573 -72.486337
LeftForeArm 14.601771 0.000000 29.295085
LeftHand -12.971854 -0.000000 -9.343997
LeftHandThumb1 -26.253704 0.000000 33.147579
RightShoulder -39.445320 -48.706192 22.301707
RightArm 48.026617 -7.161389 61.871218
RightForeArm 0.401440 -0.000000 10.980241
RightHand -0.145697 -0.000000 0.527415
RightHandThumb1 -24.326973 -0.000000 -32.862282
LeftUpLeg -41.644802 32.028604 -6.935309
LeftLeg 6.588862 -0.000000 -0.000000
LeftFoot -8.970716 18.037335 -2.119250
LeftToeBase 7.491947 -0.000000 -0.000000
RightUpLeg -67.067745 -19.162271 32.093429
RightLeg 113.124323 -0.000000 -0.000000
RightFoot 11.703052 -1.909835 27.473645
RightToeBase -1.579776 -0.000000 0.000000
3792
root 8.611795 37.754054 0.487063 199.983165 -26.044088 -514.453496
Spine -15.118895 -0.992359 -1.819233
Head 34.388600 -21.694252 21.632388
LeftShoulder -6.969729 18.522626 18.868988
LeftArm 21.975216 18.299055 -72.446186
LeftForeArm 14.659293 -0.000000 29.240249
LeftHand -12.905885 0.000000 -9.385691
LeftHandThumb1 -26.253704 0.000000 33.147579
RightShoulder -39.463082 -48.730217 22.351338
RightArm 47.960589 -7.193204 61.753303
RightForeArm 0.229967 -0.000000 10.976456
RightHand -0.307997 -0.000000 1.039070
RightHandThumb1 -24.326973 -0.000000 -32.862282
LeftUpLeg -41.554659 32.023056 -7.140202
LeftLeg 6.722605 -0.000000 -0.000000
LeftFoot -9.147259 18.064051 -2.332932
LeftToeBase 7.551419 -0.000000 -0.000000
RightUpLeg -66.966382 -19.383598 32.122628
RightLeg 113.444499 -0.000000 -0.000000
RightFoot 14.560445 -2.789916 28.936439
RightToeBase -0.067901 -0.000000 0.000000
3793
root 8.579198 37.742418 0.481140 200.058928 -25.882494 -514.713597
Spine -15.221781 -0.869259 -2.045296
Head 34.639694 -21.466776 21.597327
LeftShoulder -7.051160 18.552749 18.789081
LeftArm 22.022975 18.218330 -72.451424
LeftForeArm 14.748094 0.000000 29.203087
LeftHand -12.909231 -0.000000 -9.448744
LeftHandThumb1 -26.253704 0.000000 33.147579
RightShoulder -39.516952 -48.764647 22.443353
RightArm 47.947904 -7.121245 61.685582
RightForeArm 0.119536 -0.000000 10.921293
RightHand -0.521971 0.000000 1.627497
RightHandThumb1 -24.326973 -0.000000 -32.862282
LeftUpLeg -41.469669 32.023486 -7.333896
LeftLeg 6.839088 -0.000000 -0.000000
LeftFoot -9.344010 18.109124 -2.611907
LeftToeBase 7.668463 -0.000000 -0.000000
RightUpLeg -66.796721 -19.545127 32.049396
RightLeg 113.790172 -0.000000 -0.000000
RightFoot 17.647113 -3.774395 30.687057
RightToeBase 3.072787 -0.000000 -0.000000
3794
root 8.547356 37.729931 0.475290 200.122675 -25.717980 -514.975578
Spine -15.307397 -0.745322 -2.271132
Head 34.857190 -21.228520 21.571936
LeftShoulder -7.097032 18.572166 18.752569
LeftArm 22.003917 18.122857 -72.518366
LeftForeArm 14.793648 0.000000 29.184700
LeftHand -12.930784 -0.000000 -9.472873
LeftHandThumb1 -26.253704 0.000000 33.147579
RightShoulder -39.603720 -48.778076 22.529207
RightArm 47.980324 -7.076865 61.581898
RightForeArm 0.272812 -0.000000 10.838152
RightHand -0.720966 -0.000000 2.262507
RightHandThumb1 -24.326973 -0.000000 -32.862282
LeftUpLeg -41.350911 31.963702 -7.463638
LeftLeg 6.982493 -0.000000 -0.000000
LeftFoot -9.573868 18.212314 -2.918456
LeftToeBase 7.818051 -0.000000 -0.000000
RightUpLeg -66.552349 -19.689747 31.892736
RightLeg 114.197321 -0.000000 -0.000000
RightFoot 20.703358 -4.577815 32.311860
RightToeBase 3.648611 -0.000000 -0.000000
